<svg width="36" height="36" viewBox="0 0 36 36" fill="none" xmlns="http://www.w3.org/2000/svg">
<path d="M7.95149 17.7778C9.35976 17.8287 10.7697 17.8079 12.1759 17.7155C13.0056 17.6761 15.9403 17.5362 16.628 17.057C17.3835 16.5305 17.2263 15.1981 17.207 14.1635C17.1856 13.0118 17.0158 9.14216 16.9479 7.94353C16.8751 6.66221 17.0014 6.137 15.309 6.06748C14.4555 6.03238 11.9859 6.06748 11.1119 6.06748C9.85898 6.06703 8.61006 6.03238 7.36424 6.01798C6.41777 6.00706 5.93217 6.32403 5.7403 7.25851C5.62881 7.80194 5.81236 11.9192 5.91625 13.3774C6.11701 15.1495 5.44673 17.6684 7.95149 17.7778ZM8.90391 8.82541C10.3568 8.72253 11.7561 8.71775 13.2239 8.63073C13.6596 8.61948 13.9051 8.58011 14.0375 9.92881C14.2287 11.5439 14.2896 13.1717 14.2196 14.7966C14.1876 15.3045 10.298 15.2744 9.89762 15.2972C9.37219 15.3272 8.9056 15.4396 8.82724 14.3265C8.78399 13.7124 8.69224 12.301 8.65754 11.6863C8.54425 9.66916 8.38163 8.86912 8.90391 8.82541ZM14.24 19.3881C12.2342 19.3896 9.19163 19.4022 7.70151 19.5018C6.36085 19.5918 5.76212 19.8235 5.84875 21.5911C5.86979 22.0178 5.99601 26.2806 5.95051 27.9946C5.89763 29.9832 6.45355 30.1236 8.12322 30.0768C9.63173 30.0345 14.365 30.0022 15.8714 29.9638C17.707 29.9171 17.9639 29.578 17.9527 27.8713C17.9446 26.7028 17.7797 21.2798 17.7164 20.2919C17.6472 19.2148 16.2224 19.3866 14.24 19.3881ZM14.7472 25.7263C14.72 26.8377 14.8928 27.23 13.8839 27.3322C13.3055 27.3909 11.1876 27.4035 10.5871 27.4035C9.64028 27.4035 8.82184 27.4736 8.75176 26.9359C8.64657 25.8136 8.59425 25.0903 8.48738 24.0408C8.46134 23.6076 8.26047 22.0608 8.85947 22.0126C9.64506 21.9494 12.9636 21.8296 14.2627 21.7384C14.589 21.7272 14.7276 22.0624 14.7321 22.5455C14.742 23.6045 14.7731 24.666 14.7472 25.7263ZM30.0814 13.1009C29.7257 12.0563 27.9413 12.0366 27.0639 11.9412C25.1031 11.8057 23.1355 11.8016 21.1741 11.9288C19.9062 12.0362 18.8042 12.0009 18.841 13.6198C18.8644 14.6486 18.8951 15.671 18.9125 16.6649C18.9313 17.7496 19.0424 21.0267 19.1144 21.3526C19.2995 22.1892 19.6502 22.7504 22.0819 22.6801C23.0269 22.6528 27.7987 22.5082 28.5118 22.4462C29.5874 22.3527 29.7277 21.8617 29.8446 21.207C29.9366 20.692 30.2229 17.2597 30.2733 15.7512C30.3557 14.8632 30.2908 13.9677 30.0814 13.1009ZM27.3675 15.045C27.274 16.3009 27.2702 18.874 27.2544 19.2513C27.2327 19.7673 27.2202 19.8877 26.6768 19.9248C26.1506 19.9608 25.624 19.9915 25.0977 20.0256C24.2798 20.0784 23.4646 20.1762 22.6456 20.2064C21.9558 20.2319 21.8315 20.0292 21.7786 19.648C21.6211 18.5117 21.4504 15.7575 21.4385 15.4807C21.4195 15.0414 21.4295 14.7672 21.8941 14.6229C23.4315 14.3439 24.9967 14.2501 26.5564 14.3435C27.3452 14.4106 27.385 14.8104 27.3675 15.045ZM29.8057 24.855C29.7101 24.3682 29.4783 24.0599 27.9351 24.0366C26.522 24.0152 22.4985 23.943 21.0839 23.943C20.0083 23.943 19.4843 23.8414 19.4705 25.042C19.4602 25.942 19.6297 28.2178 19.6811 29.0403C19.7512 30.1626 20.1019 30.1393 21.2944 30.1626C22.419 30.1847 22.4401 30.2795 22.4401 28.7129C22.4401 27.3326 22.1595 26.8424 22.7909 26.819C23.8376 26.786 25.8378 26.7946 26.906 26.7956C27.0539 27.4723 27.1399 28.161 27.1632 28.8532C27.1866 30.0457 27.21 30.373 28.5895 30.3263C30.1884 30.2721 30.1561 29.9288 30.1327 28.5259C30.0971 27.2968 29.9879 26.0711 29.8057 24.855ZM20.3005 10.695C22.17 10.6894 24.8048 10.6371 27.1401 10.5217C27.4472 10.5005 28.3843 10.4499 28.6911 10.436C29.0342 10.4204 29.3976 10.3896 29.4327 9.26726C29.4552 8.55761 29.4783 7.38851 29.4783 6.8975C29.4783 6.26576 29.5016 5.7752 28.8626 5.82194C28.2099 5.78859 27.5555 5.80946 26.9063 5.88433C26.7896 6.39275 26.7209 6.91097 26.7008 7.43221C26.687 7.55833 26.6278 7.67511 26.5342 7.76074C26.4406 7.84636 26.319 7.89496 26.1922 7.89746C24.8553 7.92283 23.5587 7.89121 22.1963 7.89121C21.7988 7.89121 21.7169 7.87957 21.6935 7.41191C21.6864 7.26976 21.7151 5.91419 21.4583 5.72846C20.6549 5.628 19.84 5.66755 19.0501 5.84534C18.7473 6.09284 18.8363 6.80216 18.8395 7.92659C18.8409 8.36411 18.882 8.97121 18.9579 9.97246C19.0164 10.7438 19.6243 10.6971 20.3005 10.695Z" fill="white"/>
</svg>
