<svg width="36" height="36" viewBox="0 0 36 36" fill="none" xmlns="http://www.w3.org/2000/svg">
<path d="M7.95173 17.7783C9.36 17.8292 10.7699 17.8084 12.1761 17.716C13.0058 17.6766 15.9405 17.5367 16.6283 17.0575C17.3838 16.531 17.2265 15.1986 17.2073 14.164C17.1858 13.0123 17.016 9.14264 16.9481 7.94401C16.8753 6.66269 17.0017 6.13749 15.3092 6.06796C14.4557 6.03286 11.9861 6.06796 11.1122 6.06796C9.85922 6.06751 8.61031 6.03286 7.36448 6.01846C6.41802 6.00755 5.93241 6.32452 5.74054 7.259C5.62906 7.80243 5.8126 11.9197 5.91649 13.3779C6.11725 15.15 5.44697 17.6688 7.95173 17.7783ZM8.90416 8.8259C10.357 8.72302 11.7564 8.71824 13.2242 8.63122C13.6599 8.61997 13.9053 8.58059 14.0378 9.9293C14.2289 11.5444 14.2898 13.1722 14.2199 14.7971C14.1879 15.305 10.2983 15.2749 9.89787 15.2977C9.37244 15.3277 8.90584 15.4401 8.82749 14.327C8.78423 13.7128 8.69249 12.3015 8.65778 11.6868C8.54449 9.66965 8.38187 8.86961 8.90416 8.8259ZM14.2402 19.3886C12.2344 19.3901 9.19187 19.4026 7.70176 19.5023C6.36109 19.5923 5.76237 19.824 5.84899 21.5916C5.87003 22.0183 5.99626 26.2811 5.95075 27.9951C5.89787 29.9837 6.45379 30.1241 8.12346 30.0773C9.63197 30.035 14.3652 30.0027 15.8717 29.9643C17.7072 29.9176 17.9642 29.5785 17.9529 27.8718C17.9449 26.7033 17.7799 21.2803 17.7167 20.2923C17.6475 19.2153 16.2226 19.3871 14.2402 19.3886ZM14.7475 25.7268C14.7203 26.8382 14.893 27.2304 13.8842 27.3327C13.3057 27.3914 11.1878 27.404 10.5874 27.404C9.64052 27.404 8.82209 27.4741 8.752 26.9364C8.64681 25.8141 8.5945 25.0908 8.48762 24.0412C8.46158 23.6081 8.26071 22.0612 8.85972 22.0131C9.64531 21.9499 12.9638 21.8301 14.263 21.7389C14.5892 21.7277 14.7278 22.0629 14.7323 22.5459C14.7423 23.605 14.7733 24.6665 14.7475 25.7268ZM30.0816 13.1014C29.726 12.0568 27.9415 12.037 27.0641 11.9416C25.1033 11.8062 23.1357 11.802 21.1744 11.9293C19.9065 12.0367 18.8044 12.0014 18.8412 13.6203C18.8646 14.6491 18.8954 15.6715 18.9127 16.6653C18.9315 17.7501 19.0426 21.0271 19.1147 21.3531C19.2997 22.1897 19.6504 22.7509 22.0821 22.6806C23.0271 22.6533 27.799 22.5087 28.5121 22.4467C29.5876 22.3532 29.7279 21.8622 29.8448 21.2075C29.9368 20.6925 30.2231 17.2602 30.2735 15.7517C30.3559 14.8637 30.2911 13.9682 30.0816 13.1014ZM27.3678 15.0455C27.2743 16.3014 27.2705 18.8745 27.2546 19.2518C27.2329 19.7678 27.2204 19.8882 26.677 19.9253C26.1509 19.9613 25.6242 19.992 25.0979 20.0261C24.2801 20.0789 23.4649 20.1766 22.6459 20.2068C21.9561 20.2324 21.8317 20.0297 21.7789 19.6485C21.6214 18.5122 21.4506 15.758 21.4387 15.4812C21.4197 15.0419 21.4298 14.7677 21.8944 14.6234C23.4317 14.3444 24.997 14.2506 26.5566 14.344C27.3454 14.4111 27.3852 14.8109 27.3678 15.0455ZM29.8059 24.8555C29.7103 24.3687 29.4785 24.0604 27.9354 24.0371C26.5222 24.0156 22.4988 23.9435 21.0841 23.9435C20.0086 23.9435 19.4846 23.8419 19.4708 25.0425C19.4605 25.9425 19.6299 28.2183 19.6813 29.0408C19.7514 30.1631 20.1022 30.1398 21.2947 30.1631C22.4192 30.1851 22.4403 30.28 22.4403 28.7134C22.4403 27.3331 22.1597 26.8429 22.7911 26.8195C23.8379 26.7865 25.838 26.7951 26.9062 26.7961C27.0541 27.4728 27.1402 28.1615 27.1634 28.8537C27.1869 30.0462 27.2103 30.3735 28.5897 30.3268C30.1886 30.2726 30.1564 29.9293 30.133 28.5264C30.0973 27.2972 29.9881 26.0716 29.8059 24.8555ZM20.3007 10.6955C22.1703 10.6899 24.8051 10.6376 27.1403 10.5222C27.4474 10.501 28.3845 10.4504 28.6913 10.4365C29.0345 10.4209 29.3978 10.39 29.4329 9.26774C29.4554 8.55809 29.4785 7.38899 29.4785 6.89799C29.4785 6.26624 29.5019 5.77569 28.8628 5.82243C28.2101 5.78908 27.5558 5.80994 26.9065 5.88481C26.7899 6.39324 26.7211 6.91146 26.701 7.4327C26.6873 7.55881 26.6281 7.6756 26.5345 7.76123C26.4408 7.84685 26.3193 7.89545 26.1924 7.89794C24.8555 7.92331 23.5589 7.8917 22.1965 7.8917C21.799 7.8917 21.7172 7.88006 21.6938 7.41239C21.6867 7.27025 21.7153 5.91468 21.4586 5.72895C20.6551 5.62849 19.8403 5.66804 19.0503 5.84583C18.7475 6.09333 18.8366 6.80264 18.8398 7.92708C18.8412 8.36459 18.8823 8.9717 18.9582 9.97295C19.0166 10.7443 19.6245 10.6976 20.3007 10.6955Z" fill="white" fill-opacity="0.3"/>
</svg>
