<svg width="36" height="36" viewBox="0 0 36 36" fill="none" xmlns="http://www.w3.org/2000/svg">
<path d="M30.5613 20.4847C32.9129 19.7247 33.1601 17.0071 32.3173 15.0059C32.1247 14.4965 31.8108 14.0417 31.4028 13.6809C30.9022 13.2425 30.0022 13.5698 29.6806 13.1402C29.3182 12.6558 30.0856 11.9654 30.3135 11.6288C31.3204 10.2538 30.2734 8.50465 29.3298 7.38792C28.818 6.69739 28.0897 6.19813 27.2611 5.96976C26.4324 5.7414 25.5512 5.79707 24.7579 6.12792C24.1279 6.33177 23.1513 7.16348 22.751 6.7033C21.9843 5.82203 22.2862 4.36932 21.0663 3.59177C19.0422 2.30089 16.3912 2.71742 14.2785 3.6132C13.8595 3.82 13.512 4.14751 13.2809 4.55353C12.9624 5.1081 13.1365 5.91889 12.7395 6.36647C12.6872 6.41712 12.6201 6.44975 12.548 6.45963C12.4758 6.4695 12.4024 6.4561 12.3384 6.42137C11.1903 5.82717 9.8636 5.67634 8.61139 5.99764C7.7744 6.35596 7.02898 6.89839 6.43059 7.58459C5.83219 8.27078 5.39622 9.08306 5.15511 9.96102C4.9898 10.6052 5.02239 11.2842 5.24865 11.9095C5.54481 12.6576 6.63206 13.2539 5.60702 13.7213C5.02106 13.9885 4.01036 13.9719 3.75173 14.7047C3.04265 16.7803 3.0716 19.0369 3.83368 21.0936C3.92922 21.3355 4.10005 21.5403 4.32092 21.6777C4.54179 21.815 4.80099 21.8777 5.06021 21.8564C5.40778 21.8836 5.88709 21.7692 6.04515 22.1802C6.1077 22.3699 6.094 22.5764 6.00696 22.7562C5.68262 23.3303 5.39203 23.9267 5.11748 24.5322C4.60262 26.1687 6.95758 27.9789 8.09698 28.8531C8.59203 29.2199 9.16524 29.4671 9.77176 29.5754C10.3783 29.6837 11.0016 29.6502 11.593 29.4775C12.1268 29.3054 12.5123 28.6762 13.0606 28.8835C13.3133 28.9791 13.4595 29.7029 13.5776 30.2493C14.0577 32.4707 16.3925 33.5174 18.5247 33.1559C19.7928 32.9407 21.386 32.7773 22.313 31.8118C23.0009 31.0564 22.5717 29.5937 23.0881 28.6777C23.3734 28.1714 24.0416 28.6367 24.4465 28.7773C24.9734 28.9822 25.5281 29.1068 26.092 29.1469C28.0558 29.1622 29.4735 27.4456 30.4714 25.942C30.8097 25.5081 31.038 24.9989 31.1368 24.4577C31.2837 23.262 30.5941 22.1602 29.8282 21.2948C29.4059 20.818 30.1934 20.6026 30.5613 20.4847ZM28.7437 18.8089C27.8268 19.067 26.8665 19.3175 26.6237 20.389C26.4332 21.4176 27.2083 22.1741 27.6291 22.9808C27.7897 23.1883 27.8768 23.4432 27.8768 23.7056C27.8768 23.968 27.7897 24.223 27.6291 24.4305C27.1899 25.0353 26.6722 25.5792 26.0898 26.0477C25.0548 26.8758 23.6974 25.8492 22.6092 25.5776C22.2402 25.5468 21.8721 25.647 21.5696 25.8605C21.2671 26.0741 21.0495 26.3873 20.9549 26.7453C20.7407 27.3903 20.818 28.0864 20.6108 28.7147C20.4158 29.3053 19.6091 29.7835 18.1868 29.9603C17.7543 30.0369 17.309 29.9933 16.8996 29.8343C16.4901 29.6753 16.1321 29.4071 15.8646 29.0587C15.6465 28.3865 15.4672 27.7024 15.3274 27.0098C14.8977 25.7165 13.6254 25.9782 12.7607 26.3513C11.9828 26.6868 11.3437 26.9985 10.7669 26.7024C9.61264 26.1097 8.60025 25.4398 8.05463 24.1771C8.01324 24.0058 8.01157 23.8272 8.04974 23.655C8.08792 23.4829 8.16493 23.3218 8.2749 23.184C8.7519 22.3887 9.39743 21.5044 9.16742 20.5276C8.91339 19.193 7.07734 20.3336 6.58881 19.2008C6.35706 18.2619 6.30294 17.288 6.42923 16.3292C6.58605 15.8206 7.14827 15.7468 7.5756 15.5761C9.05807 15.1062 9.2145 14.242 8.49433 12.9509C7.52537 11.4602 7.44049 10.4972 8.66258 9.27516C9.13018 8.8075 9.43843 8.41988 9.94086 8.40222C10.6072 8.37887 11.6509 9.50843 12.3102 9.80515C12.736 9.97255 13.209 9.97517 13.6367 9.81249C14.0644 9.6498 14.4161 9.33351 14.6231 8.9254C15.0029 7.99305 14.789 6.77693 15.49 6.2511C16.0201 5.85364 18.8609 5.45612 19.7611 5.97053C20.3027 6.2799 20.4286 7.2357 20.4857 7.79387C20.4815 8.3173 20.6851 8.82101 21.0519 9.19453C21.4186 9.56805 21.9184 9.78091 22.4419 9.78642C23.0562 9.85392 23.5426 9.46084 24.0556 9.12829C24.4515 8.82187 24.9227 8.62768 25.4196 8.56613C26.2453 8.58627 26.9712 9.43238 27.4537 10.0976C28.0162 10.8733 27.6381 11.5463 27.0769 12.1054C26.7573 12.4169 26.5643 12.8357 26.5351 13.281C26.6414 13.8096 26.8727 14.3051 27.2096 14.7261C27.3551 14.9099 27.5405 15.0581 27.7519 15.1594C27.9632 15.2608 28.1948 15.3127 28.4292 15.3111C28.9104 15.3933 29.5571 15.4057 29.7567 16.2706C30.1424 17.942 29.8543 18.3342 28.7437 18.8089ZM17.4959 9.98672C15.8211 10.2727 14.2707 11.0547 13.0452 12.2315C11.8197 13.4084 10.9756 14.9259 10.6222 16.5878C10.054 19.6602 11.4046 23.0584 14.2154 24.5679C18.01 26.7493 22.9683 24.5302 24.7 20.7162C25.1085 19.6172 25.348 18.4627 25.4105 17.2919C25.541 12.7537 22.0199 9.45814 17.4959 9.98672ZM17.3868 22.4127C15.6412 22.4093 14.2978 21.0009 13.7683 19.4336C12.9547 16.4701 15.1549 12.5292 18.506 12.7404C19.6022 12.8278 20.6216 13.3378 21.3488 14.1628C22.076 14.9878 22.454 16.0631 22.403 17.1617C22.4528 19.9187 20.1959 22.4672 17.3868 22.4127Z" fill="white" fill-opacity="0.3"/>
</svg>
