<svg width="53" height="52" viewBox="0 0 53 52" fill="none" xmlns="http://www.w3.org/2000/svg">
<path d="M38.9509 27.7941C41.2401 21.6367 40.294 15.2565 34.0336 12.0488C25.7155 8.44252 12.8657 13.7162 12.5574 23.569C12.481 27.1101 14.0265 30.5026 15.7709 33.5247C17.1892 35.6762 18.7826 37.7179 18.9932 40.4764C19.1595 42.6559 18.8551 44.9663 20.1862 46.8809C22.9126 51.4199 29.4872 50.8612 32.6296 47.0765C35.3967 43.8967 33.0349 39.3653 34.7867 35.8265C36.1018 33.1007 37.9333 30.6637 38.9509 27.7941ZM30.2 42.2367C30.2272 43.1087 29.9879 43.9683 29.5141 44.7009C27.1994 47.346 22.785 46.4104 22.604 42.6064C22.5691 42.1622 22.6521 41.7166 22.8446 41.3148C23.0765 40.8598 23.5305 40.9692 23.9374 41.0106C25.5437 41.1484 27.354 41.1379 28.8707 41.125C30.2626 41.0824 30.2536 41.408 30.2 42.2367ZM32.4761 31.1102C31.1783 33.0099 30.2985 35.1635 29.8948 37.4285C28.4146 37.5426 23.348 37.3839 22.8581 37.3394C22.4349 36.0479 19.8741 32.3378 18.8184 30.4388C16.8523 26.9018 15.5453 23.1599 18.2931 19.5399C20.6002 16.3224 24.6716 15.2039 28.5086 15.2414C36.1299 15.316 37.2605 21.7566 34.6725 27.2269C34.0622 28.5922 33.2155 29.817 32.4761 31.1102ZM47.7986 21.8184C46.3369 21.912 44.889 22.1583 43.4785 22.5532C41.6748 23.0876 41.9196 24.8691 42.7659 25.7153C43.3386 26.134 44.0393 26.3404 44.7476 26.299C45.7056 26.2853 46.6608 26.1919 47.6034 26.0199C48.3415 25.8942 49.5148 25.8843 49.9441 25.0585C50.3816 24.2166 50.0031 21.8184 47.7986 21.8184ZM13.3926 14.6855C14.7075 14.0467 14.7138 12.2766 13.5942 10.6927C11.2113 7.32162 9.42989 6.54224 8.16475 7.80706C7.87973 8.03111 7.64347 8.311 7.47045 8.62958C7.29742 8.94817 7.19128 9.29872 7.15851 9.65977C7.39783 10.5026 7.85033 11.2696 8.47235 11.8866C9.87523 13.3786 11.2402 15.4808 13.3926 14.6855ZM43.8791 37.8961C42.4261 36.7389 40.8439 35.1618 38.7966 35.5898C38.3186 35.7495 37.9163 36.0799 37.6666 36.5177C37.417 36.9555 37.3375 37.47 37.4435 37.9627C37.7256 38.7797 38.2911 39.4687 39.0374 39.9048C39.857 40.3869 40.6691 40.883 41.4857 41.3711C42.2477 41.8266 43.1791 42.5618 44.1144 42.1708C44.4834 41.945 44.794 41.6354 45.021 41.2671C45.2479 40.8987 45.3848 40.4821 45.4206 40.0509C45.5315 38.952 44.6246 38.4795 43.8791 37.8961ZM27.2447 9.43711C27.9011 8.92909 27.9063 7.46209 27.9572 6.49772C28.0685 4.38224 28.4994 2.56408 26.5258 1.99579C25.8779 1.81954 25.1876 1.88912 24.5879 2.19114C24.3256 2.34247 24.1074 2.55973 23.9549 2.82138C23.8024 3.08303 23.721 3.37999 23.7187 3.68281C23.4534 5.43803 23.6441 7.23197 24.2724 8.8922C24.8116 10.3485 26.5067 10.008 27.2447 9.43711ZM11.0586 27.12C11.6121 24.5127 8.87751 24.3438 4.30809 25.1363C2.65442 25.4232 2.49595 27.9046 3.60898 28.6953C4.42604 29.0857 5.33328 29.2483 6.23505 29.1661C7.69803 29.145 10.7146 28.7395 11.0586 27.12ZM13.3473 37.3619C12.6233 37.6327 11.9585 38.0409 11.3895 38.5642C10.5337 39.1863 9.83147 39.9958 9.33635 40.9308C9.2162 41.2367 9.18047 41.5692 9.23289 41.8937C9.28532 42.2181 9.42397 42.5225 9.63435 42.775C9.84473 43.0275 10.1191 43.2188 10.4288 43.3289C10.7384 43.439 11.072 43.4639 11.3945 43.4009C12.0379 43.233 12.627 42.9016 13.1045 42.4388C14.0621 41.5704 15.3013 40.4739 15.6751 39.125C15.8861 37.8605 14.4283 37.0447 13.3473 37.3619ZM39.7594 13.1782C41.0041 12.5983 42.0902 11.7263 42.9255 10.6364C43.5091 10.0315 43.8317 9.22156 43.824 8.38105C43.7609 7.93575 43.5636 7.52025 43.2584 7.18993C42.9531 6.85961 42.5545 6.63014 42.1156 6.53211C41.8268 6.5029 41.5355 6.55204 41.2723 6.67437C41.009 6.7967 40.7836 6.9877 40.6198 7.22728C40.3741 7.58536 40.0787 7.90309 39.7969 8.23866C39.2041 8.92693 38.691 9.68003 38.2674 10.4836C37.3544 12.2652 38.6682 13.6681 39.7594 13.1782Z" fill="white"/>
</svg>
